<svg width="1000" height="1000" viewBox="0 0 1000 1000" fill="none"
     xmlns:inkscape="http://www.inkscape.org/namespaces/inkscape"
     xmlns:sodipodi="http://sodipodi.sourceforge.net/DTD/sodipodi-0.dtd"
     xmlns="http://www.w3.org/2000/svg">
    <sodipodi:namedview
            id="namedview206"
            pagecolor="#ffffff"
            bordercolor="#000000"
            borderopacity="0.25"
            inkscape:showpageshadow="2"
            inkscape:pageopacity="0.0"
            inkscape:pagecheckerboard="0"
            inkscape:deskcolor="#d1d1d1"
            showgrid="false"
            inkscape:zoom="0.837"
            inkscape:cx="473.71565"
            inkscape:cy="499.40263"
            inkscape:window-width="1920"
            inkscape:window-height="1017"
            inkscape:window-x="-8"
            inkscape:window-y="-8"
            inkscape:window-maximized="1"
            inkscape:current-layer="svg204" />
    <circle
            cx="500"
            cy="500"
            r="450"
            fill="#FF66AB"
            id="circle105" />
    <circle
            cx="500"
            cy="500"
            r="450"
            fill="url(#paint0_linear_34_23)"
            fill-opacity="0.2"
            id="circle107" />
    <mask
            id="mask0_34_23"
            style="mask-type:alpha"
            maskUnits="userSpaceOnUse"
            x="50"
            y="50"
            width="900"
            height="900">
        <circle
                cx="500"
                cy="500"
                r="450"
                fill="#FF66AB"
                id="circle109" />
        <circle
                cx="500"
                cy="500"
                r="450"
                fill="url(#paint1_linear_34_23)"
                fill-opacity="0.2"
                id="circle111" />
    </mask>
    <g
            mask="url(#mask0_34_23)"
            id="g116">
        <path
                fill-rule="evenodd"
                clip-rule="evenodd"
                d="M394.438 139.1L273.829 348.001L220.638 255.872L37.1974 573.6H121.472L-0.821655 785.418H332.083L289.75 858.74H656.631L564.127 698.518H744.632L724.25 733.822H1091.13L1047.23 657.784H1235.06L1051.62 340.056L957.704 502.72L907.69 416.094L872.586 476.896L723.028 217.853L562.888 495.222L540.721 456.828H577.878L394.438 139.1ZM749.828 698.518L732.044 729.322H1083.34L1042.03 657.784H868.178L955.106 507.22L907.69 425.094L875.184 481.396L906.468 535.581H843.9L803.707 605.197L857.587 698.518H749.828ZM801.109 609.697L849.792 694.018H752.426L801.109 609.697ZM798.511 605.197L747.23 694.018H561.529L530.014 639.434L530.395 638.775H645.768L588.082 538.859L589.974 535.581H758.319L798.511 605.197ZM801.109 600.697L838.704 535.581H763.515L801.109 600.697ZM760.917 531.081H841.302L869.988 481.396L723.028 226.853L565.486 499.722L583.591 531.081H587.376L674.146 380.791L760.917 531.081ZM592.572 531.081H755.721L674.146 389.791L592.572 531.081ZM582.886 538.859L580.993 535.581H539.587L560.29 499.722L535.525 456.828H389.131L362.895 502.269L404.078 573.6H321.713L286.682 634.275H419.346L473.191 541.012L527.036 634.275H527.797L582.886 538.859ZM532.993 634.275H637.974L585.484 543.359L532.993 634.275ZM524.818 639.434L524.437 638.775H421.944L351.669 760.494L366.059 785.418H337.279L297.544 854.24H648.837L558.931 698.518H490.706L524.818 639.434ZM556.333 694.018L527.416 643.934L498.5 694.018H556.333ZM578.395 531.081L562.888 504.222L547.382 531.081H578.395ZM846.498 531.081L872.586 485.896L898.674 531.081H846.498ZM220.638 264.872L271.23 352.501L210.997 456.828H331.464L357.699 502.269L319.114 569.1H241.167L182.619 467.69L124.07 569.1H44.9916L220.638 264.872ZM273.829 357.001L218.791 452.328H328.866L273.829 357.001ZM276.427 352.501L334.062 452.328H386.533L462.328 321.047L538.123 452.328H570.084L394.438 148.1L276.427 352.501ZM360.297 497.769L336.66 456.828H383.935L360.297 497.769ZM462.328 330.047L532.927 452.328H391.729L462.328 330.047ZM126.668 573.6L6.97257 780.918H334.681L346.473 760.494L238.569 573.6H126.668ZM235.971 569.1H129.266L182.619 476.69L235.971 569.1ZM243.765 573.6L280.141 636.604L316.516 573.6H243.765ZM360.297 506.769L324.311 569.1H396.284L360.297 506.769ZM349.071 755.994L281.394 638.775H416.747L349.071 755.994ZM349.071 764.994L339.877 780.918H358.265L349.071 764.994ZM424.542 634.275L473.191 550.012L521.839 634.275H424.542ZM957.704 511.72L875.972 653.284H1039.44L957.704 511.72ZM1044.63 653.284L960.302 507.22L1051.62 349.056L1227.26 653.284H1044.63Z"
                fill="url(#paint2_linear_34_23)"
                id="path114" />
    </g>
    <defs
            id="defs202">
        <filter
                id="filter0_d_34_23"
                x="170.75"
                y="354.714"
                width="658.571"
                height="283.661"
                filterUnits="userSpaceOnUse"
                color-interpolation-filters="sRGB">
            <feFlood
                    flood-opacity="0"
                    result="BackgroundImageFix"
                    id="feFlood136" />
            <feColorMatrix
                    in="SourceAlpha"
                    type="matrix"
                    values="0 0 0 0 0 0 0 0 0 0 0 0 0 0 0 0 0 0 127 0"
                    result="hardAlpha"
                    id="feColorMatrix138" />
            <feOffset
                    dy="10.7249"
                    id="feOffset140" />
            <feGaussianBlur
                    stdDeviation="10.7249"
                    id="feGaussianBlur142" />
            <feComposite
                    in2="hardAlpha"
                    operator="out"
                    id="feComposite144" />
            <feColorMatrix
                    type="matrix"
                    values="0 0 0 0 0 0 0 0 0 0 0 0 0 0 0 0 0 0 0.25 0"
                    id="feColorMatrix146" />
            <feBlend
                    mode="normal"
                    in2="BackgroundImageFix"
                    result="effect1_dropShadow_34_23"
                    id="feBlend148" />
            <feBlend
                    mode="normal"
                    in="SourceGraphic"
                    in2="effect1_dropShadow_34_23"
                    result="shape"
                    id="feBlend150" />
        </filter>
        <filter
                id="filter1_d_34_23"
                x="32"
                y="41"
                width="936"
                height="936"
                filterUnits="userSpaceOnUse"
                color-interpolation-filters="sRGB">
            <feFlood
                    flood-opacity="0"
                    result="BackgroundImageFix"
                    id="feFlood153" />
            <feColorMatrix
                    in="SourceAlpha"
                    type="matrix"
                    values="0 0 0 0 0 0 0 0 0 0 0 0 0 0 0 0 0 0 127 0"
                    result="hardAlpha"
                    id="feColorMatrix155" />
            <feOffset
                    dy="9"
                    id="feOffset157" />
            <feGaussianBlur
                    stdDeviation="9"
                    id="feGaussianBlur159" />
            <feComposite
                    in2="hardAlpha"
                    operator="out"
                    id="feComposite161" />
            <feColorMatrix
                    type="matrix"
                    values="0 0 0 0 0 0 0 0 0 0 0 0 0 0 0 0 0 0 0.25 0"
                    id="feColorMatrix163" />
            <feBlend
                    mode="normal"
                    in2="BackgroundImageFix"
                    result="effect1_dropShadow_34_23"
                    id="feBlend165" />
            <feBlend
                    mode="normal"
                    in="SourceGraphic"
                    in2="effect1_dropShadow_34_23"
                    result="shape"
                    id="feBlend167" />
        </filter>
        <filter
                id="filter2_d_34_23"
                x="236.45"
                y="475.775"
                width="98.3216"
                height="97.9616"
                filterUnits="userSpaceOnUse"
                color-interpolation-filters="sRGB">
            <feFlood
                    flood-opacity="0"
                    result="BackgroundImageFix"
                    id="feFlood170" />
            <feColorMatrix
                    in="SourceAlpha"
                    type="matrix"
                    values="0 0 0 0 0 0 0 0 0 0 0 0 0 0 0 0 0 0 127 0"
                    result="hardAlpha"
                    id="feColorMatrix172" />
            <feOffset
                    dy="10.7249"
                    id="feOffset174" />
            <feGaussianBlur
                    stdDeviation="10.7249"
                    id="feGaussianBlur176" />
            <feComposite
                    in2="hardAlpha"
                    operator="out"
                    id="feComposite178" />
            <feColorMatrix
                    type="matrix"
                    values="0 0 0 0 0 0 0 0 0 0 0 0 0 0 0 0 0 0 0.25 0"
                    id="feColorMatrix180" />
            <feBlend
                    mode="normal"
                    in2="BackgroundImageFix"
                    result="effect1_dropShadow_34_23"
                    id="feBlend182" />
            <feBlend
                    mode="normal"
                    in="SourceGraphic"
                    in2="effect1_dropShadow_34_23"
                    result="shape"
                    id="feBlend184" />
        </filter>
        <linearGradient
                id="paint0_linear_34_23"
                x1="500"
                y1="50"
                x2="500"
                y2="950"
                gradientUnits="userSpaceOnUse">
            <stop
                    stop-opacity="0"
                    id="stop187" />
            <stop
                    offset="1"
                    id="stop189" />
        </linearGradient>
        <linearGradient
                id="paint1_linear_34_23"
                x1="500"
                y1="50"
                x2="500"
                y2="950"
                gradientUnits="userSpaceOnUse">
            <stop
                    stop-opacity="0"
                    id="stop192" />
            <stop
                    offset="1"
                    id="stop194" />
        </linearGradient>
        <linearGradient
                id="paint2_linear_34_23"
                x1="617.118"
                y1="139.1"
                x2="617.118"
                y2="858.74"
                gradientUnits="userSpaceOnUse">
            <stop
                    stop-color="#F964A7"
                    id="stop197" />
            <stop
                    offset="1"
                    stop-color="#B6346F"
                    id="stop199" />
        </linearGradient>
    </defs>
    <rect width="1000" height="1000" fill=""/>
    <path d="M780.145 365C792.842 365 801.549 374.432 801.549 387.492V508.295C801.549 521.355 792.842 530.787 780.145 530.787C767.086 530.787 758.742 521.355 758.742 508.295V387.492C758.742 374.432 767.086 365 780.145 365ZM780.145 607.694C764.546 607.694 752.212 595.36 752.212 579.761C752.212 564.525 764.546 552.19 780.145 552.19C795.745 552.19 808.079 564.525 808.079 579.761C808.079 595.36 795.745 607.694 780.145 607.694Z" fill="white"/>
    <path d="M701.968 423.406C715.028 423.406 723.372 432.838 723.372 445.535V525.708C723.372 584.84 686.915 607.694 642.656 607.694C598.035 607.694 561.578 584.84 561.578 525.708V445.535C561.578 432.838 569.922 423.406 582.982 423.406C595.679 423.406 604.385 432.838 604.385 445.535V522.806C604.385 555.092 617.988 567.789 642.656 567.789C666.962 567.789 680.565 555.092 680.565 522.806V445.535C680.565 432.838 689.271 423.406 701.968 423.406Z" fill="white"/>
    <path d="M440.2 472.381C440.2 484.352 452.534 488.706 476.115 494.147C508.764 502.128 539.963 510.472 539.963 550.74C539.963 589.919 510.941 607.695 469.222 607.695C434.759 607.695 409.727 595.723 398.119 581.938C389.049 571.055 390.138 561.623 398.844 553.279C409.727 542.759 419.159 547.112 425.327 552.553C435.121 561.623 447.093 571.055 470.31 571.055C487.723 571.055 498.607 565.25 498.607 553.642C498.607 542.033 486.998 538.043 456.525 529.699C426.415 521.355 399.57 513.374 399.57 477.46C399.57 437.192 432.219 420.504 468.496 420.504C489.174 420.504 512.755 425.946 527.266 441.545C533.433 447.712 538.149 456.419 527.266 468.39C516.382 479.636 508.401 476.371 500.783 470.567C493.891 465.488 481.919 456.782 463.78 456.782C451.446 456.782 440.2 460.772 440.2 472.381Z" fill="white"/>
    <path d="M281.815 607.695C229.509 607.695 192 567.661 192 513.797C192 459.569 229.509 419.899 281.815 419.899C334.122 419.899 371.631 459.569 371.631 513.797C371.631 567.661 334.122 607.695 281.815 607.695ZM281.815 567.661C312.098 567.661 331.025 544.368 331.025 513.797C331.025 483.225 312.098 459.569 281.815 459.569C251.533 459.569 232.606 483.225 232.606 513.797C232.606 544.368 251.533 567.661 281.815 567.661Z" fill="white"/>
    <path d="M950 500C950 748.528 748.528 950 500 950C251.472 950 50 748.528 50 500C50 251.472 251.472 50 500 50C748.528 50 950 251.472 950 500ZM95 500C95 723.675 276.325 905 500 905C723.675 905 905 723.675 905 500C905 276.325 723.675 95 500 95C276.325 95 95 276.325 95 500Z" fill="white"/>
</svg>
